<svg width="16" height="16" viewBox="0 0 16 16" fill="none" xmlns="http://www.w3.org/2000/svg">
<path fill-rule="evenodd" clip-rule="evenodd" d="M8.00033 0.666748C3.95033 0.666748 0.666992 3.95008 0.666992 8.00008C0.666992 12.0501 3.95033 15.3334 8.00033 15.3334C12.0503 15.3334 15.3337 12.0501 15.3337 8.00008C15.3337 3.95008 12.0503 0.666748 8.00033 0.666748ZM1.67566 7.66675H4.83899C4.90566 5.64208 5.57233 4.00675 6.23432 2.86408C6.49433 2.41608 6.75433 2.04208 6.98033 1.74875C4.07366 2.21941 1.83099 4.66675 1.67566 7.66675ZM4.85566 8.66675H1.70166C1.84822 10.0473 2.44415 11.3416 3.39783 12.3506C4.35151 13.3595 5.61017 14.0274 6.98033 14.2514C6.70806 13.896 6.45888 13.5234 6.23432 13.1361C5.60899 12.0567 4.98033 10.5381 4.85566 8.66675ZM5.85833 8.66675H10.1423C10.0203 10.3201 9.46233 11.6667 8.90099 12.6341C8.58366 13.1807 8.26766 13.6041 8.03166 13.8874L8.00033 13.9267L7.96899 13.8887C7.64524 13.4956 7.35447 13.0764 7.09966 12.6354C6.53833 11.6667 5.97966 10.3187 5.85833 8.66675ZM10.161 7.66675H5.83966C5.90632 5.86141 6.50099 4.39741 7.09966 3.36608C7.41699 2.81941 7.73299 2.39608 7.96899 2.11275L8.00033 2.07341L8.03166 2.11141C8.26699 2.39541 8.58366 2.81808 8.90099 3.36475C9.49966 4.39675 10.0943 5.86075 10.161 7.66608V7.66675ZM11.145 8.66675C11.021 10.5381 10.3917 12.0567 9.76632 13.1361C9.50632 13.5841 9.24633 13.9581 9.02099 14.2514C10.3909 14.0271 11.6493 13.3591 12.6027 12.3502C13.5561 11.3413 14.1518 10.0472 14.2983 8.66675H11.1443H11.145ZM14.325 7.66675H11.1617C11.095 5.64208 10.4283 4.00675 9.76632 2.86408C9.50632 2.41608 9.24632 2.04208 9.02032 1.74875C11.927 2.21941 14.1697 4.66675 14.325 7.66675Z" fill="white"/>
</svg>
