<svg width="173" height="40" viewBox="0 0 173 40" fill="none" xmlns="http://www.w3.org/2000/svg">
<path d="M14.4467 31.6744V15.6689L14.2995 16.6621L8.85126 31.6744H7.73872L2.24145 16.6621L2.11056 15.6689V31.6744H0V8.32564H1.09618L8.21319 27.4735L8.27863 28.3365L8.34408 27.4735L15.4447 8.32564H16.5573V31.6744H14.4467Z" fill="black"/>
<path d="M21.9236 31.6744V8.32564H35.1269V10.3284H24.0342V19.0068H33.0164V21.0095H24.0342V29.6716H35.1269V31.6744H21.9236Z" fill="black"/>
<path d="M39.6753 15.5061H38.8245V8.32564H41.3441L39.6753 15.5061Z" fill="black"/>
<path d="M60.1591 31.6744V15.6689L60.0119 16.6621L54.5637 31.6744H53.4512L47.9539 16.6621L47.823 15.6689V31.6744H45.7124V8.32564H46.8086L53.9256 27.4735L53.9911 28.3365L54.0565 27.4735L61.1572 8.32564H62.2697V31.6744H60.1591Z" fill="black"/>
<path d="M80.4958 26.2687C80.4958 27.0611 80.3431 27.8046 80.0377 28.4993C79.7432 29.194 79.3342 29.8019 78.8106 30.3229C78.2871 30.844 77.6762 31.2564 76.9782 31.5604C76.2801 31.8535 75.533 32 74.7367 32H73.0679C72.2717 32 71.5191 31.8535 70.8101 31.5604C70.112 31.2564 69.5012 30.844 68.9777 30.3229C68.4541 29.8019 68.0397 29.194 67.7343 28.4993C67.4398 27.8046 67.2925 27.0611 67.2925 26.2687V13.7313C67.2925 12.9389 67.4398 12.1954 67.7343 11.5007C68.0397 10.806 68.4541 10.1981 68.9777 9.67707C69.5012 9.15604 70.112 8.74898 70.8101 8.4559C71.5191 8.15197 72.2717 8 73.0679 8H74.7367C75.533 8 76.2801 8.15197 76.9782 8.4559C77.6762 8.74898 78.2871 9.15604 78.8106 9.67707C79.3342 10.1981 79.7432 10.806 80.0377 11.5007C80.3431 12.1954 80.4958 12.9389 80.4958 13.7313V26.2687ZM78.3852 13.7313C78.3852 13.2103 78.2871 12.7273 78.0907 12.2822C77.8944 11.8263 77.6272 11.4301 77.289 11.0936C76.9509 10.7571 76.5528 10.4912 76.0947 10.2958C75.6475 10.1004 75.1621 10.0027 74.6386 10.0027H73.1661C72.6425 10.0027 72.1517 10.1004 71.6936 10.2958C71.2464 10.4912 70.8483 10.7571 70.4993 11.0936C70.1611 11.4301 69.8939 11.8263 69.6976 12.2822C69.5012 12.7273 69.4031 13.2103 69.4031 13.7313V26.2687C69.4031 26.7897 69.5012 27.2782 69.6976 27.7341C69.8939 28.1791 70.1611 28.5753 70.4993 28.9227C70.8483 29.2592 71.2464 29.5251 71.6936 29.7205C72.1517 29.9159 72.6425 30.0136 73.1661 30.0136H74.6386C75.1621 30.0136 75.6475 29.9159 76.0947 29.7205C76.5528 29.5251 76.9509 29.2592 77.289 28.9227C77.6272 28.5753 77.8944 28.1791 78.0907 27.7341C78.2871 27.2782 78.3852 26.7897 78.3852 26.2687V13.7313Z" fill="black"/>
<path d="M96.5622 31.6744L90.1978 21.7096H87.3019V31.6744H85.1914V8.32564H92.6356C93.4318 8.32564 94.179 8.47761 94.877 8.78155C95.5751 9.07463 96.1859 9.48168 96.7095 10.0027C97.233 10.5237 97.642 11.137 97.9365 11.8426C98.2419 12.5373 98.3946 13.2809 98.3946 14.0733V15.962C98.3946 16.7544 98.2419 17.5034 97.9365 18.209C97.642 18.9037 97.233 19.5115 96.7095 20.0326C96.1859 20.5536 95.5751 20.9661 94.877 21.27C94.179 21.5631 93.4318 21.7096 92.6356 21.7096L99 31.6744H96.5622ZM96.2841 14.0733C96.2841 13.5522 96.1859 13.0692 95.9896 12.6242C95.7933 12.1682 95.526 11.772 95.1879 11.4355C94.8498 11.0882 94.4517 10.8168 93.9936 10.6214C93.5464 10.4261 93.061 10.3284 92.5374 10.3284H87.3019V19.7069H92.5374C93.061 19.7069 93.5464 19.6092 93.9936 19.4138C94.4517 19.2185 94.8498 18.9525 95.1879 18.616C95.526 18.2687 95.7933 17.8725 95.9896 17.4274C96.1859 16.9715 96.2841 16.483 96.2841 15.962V14.0733Z" fill="black"/>
<path d="M120.113 15.043H117.453L116.902 17H116.117L118.578 8.59766H118.977L121.449 17H120.67L120.113 15.043ZM117.658 14.3223H119.914L118.807 10.4492L118.783 10.1387L118.76 10.4492L117.658 14.3223ZM124.051 11.6855C123.906 11.6855 123.77 11.7129 123.641 11.7676C123.516 11.8223 123.406 11.8965 123.312 11.9902C123.219 12.084 123.145 12.1953 123.09 12.3242C123.035 12.4492 123.008 12.584 123.008 12.7285V17H122.287V11H122.527L122.92 11.6094C123.084 11.3867 123.289 11.2109 123.535 11.082C123.785 10.9492 124.057 10.8828 124.35 10.8828H124.771V11.6855H124.051ZM129.74 15.3535C129.74 15.5957 129.693 15.8242 129.6 16.0391C129.51 16.2539 129.385 16.4414 129.225 16.6016C129.064 16.7617 128.877 16.8887 128.662 16.9824C128.447 17.0723 128.219 17.1172 127.977 17.1172H127.496C127.254 17.1172 127.025 17.0723 126.811 16.9824C126.596 16.8887 126.408 16.7617 126.248 16.6016C126.088 16.4414 125.961 16.2539 125.867 16.0391C125.777 15.8242 125.732 15.5957 125.732 15.3535V12.6465C125.732 12.4043 125.777 12.1758 125.867 11.9609C125.961 11.7461 126.088 11.5586 126.248 11.3984C126.408 11.2383 126.596 11.1133 126.811 11.0234C127.025 10.9297 127.254 10.8828 127.496 10.8828H127.977C128.219 10.8828 128.447 10.9297 128.662 11.0234C128.877 11.1133 129.064 11.2383 129.225 11.3984C129.385 11.5586 129.51 11.7461 129.6 11.9609C129.693 12.1758 129.74 12.4043 129.74 12.6465V12.8867L129.02 13.0039V12.6055C129.02 12.4609 128.992 12.3262 128.938 12.2012C128.883 12.0723 128.809 11.9609 128.715 11.8672C128.621 11.7734 128.51 11.6992 128.381 11.6445C128.256 11.5898 128.121 11.5625 127.977 11.5625H127.496C127.352 11.5625 127.215 11.5898 127.086 11.6445C126.961 11.6992 126.852 11.7734 126.758 11.8672C126.664 11.9609 126.59 12.0723 126.535 12.2012C126.48 12.3262 126.453 12.4609 126.453 12.6055V15.3945C126.453 15.5391 126.48 15.6758 126.535 15.8047C126.59 15.9297 126.664 16.0391 126.758 16.1328C126.852 16.2266 126.961 16.3008 127.086 16.3555C127.215 16.4102 127.352 16.4375 127.496 16.4375H127.977C128.121 16.4375 128.256 16.4102 128.381 16.3555C128.51 16.3008 128.621 16.2266 128.715 16.1328C128.809 16.0391 128.883 15.9297 128.938 15.8047C128.992 15.6758 129.02 15.5391 129.02 15.3945V14.9961L129.74 15.1133V15.3535ZM134.469 17V12.6055C134.469 12.4609 134.441 12.3262 134.387 12.2012C134.332 12.0723 134.258 11.9609 134.164 11.8672C134.07 11.7734 133.959 11.6992 133.83 11.6445C133.705 11.5898 133.57 11.5625 133.426 11.5625H132.945C132.801 11.5625 132.664 11.5898 132.535 11.6445C132.41 11.6992 132.301 11.7734 132.207 11.8672C132.113 11.9609 132.039 12.0723 131.984 12.2012C131.93 12.3262 131.902 12.4609 131.902 12.6055V17H131.182V8.59766H131.902V11.5039C132.066 11.3086 132.264 11.1562 132.494 11.0469C132.725 10.9375 132.975 10.8828 133.244 10.8828H133.426C133.668 10.8828 133.896 10.9297 134.111 11.0234C134.326 11.1133 134.514 11.2383 134.674 11.3984C134.834 11.5586 134.959 11.7461 135.049 11.9609C135.143 12.1758 135.189 12.4043 135.189 12.6465V17H134.469ZM136.812 9.55859V8.59766H137.65V9.55859H136.812ZM136.871 17V11H137.592V17H136.871ZM141.465 17C141.246 17 141.039 16.959 140.844 16.877C140.652 16.7949 140.484 16.6816 140.34 16.5371C140.199 16.3926 140.086 16.2246 140 16.0332C139.918 15.8418 139.877 15.6367 139.877 15.418V11.6855H138.799V11H139.877V9.55859L140.598 9.44141V11H142.121V11.6855H140.598V15.4531C140.598 15.5742 140.619 15.6875 140.662 15.793C140.709 15.8945 140.771 15.9844 140.85 16.0625C140.928 16.1406 141.02 16.2031 141.125 16.25C141.23 16.293 141.344 16.3145 141.465 16.3145H142.121V17H141.465ZM147.459 15.3535C147.459 15.5957 147.412 15.8242 147.318 16.0391C147.229 16.2539 147.104 16.4414 146.943 16.6016C146.783 16.7617 146.596 16.8887 146.381 16.9824C146.166 17.0723 145.938 17.1172 145.695 17.1172H145.215C144.973 17.1172 144.744 17.0723 144.529 16.9824C144.314 16.8887 144.127 16.7617 143.967 16.6016C143.807 16.4414 143.68 16.2539 143.586 16.0391C143.496 15.8242 143.451 15.5957 143.451 15.3535V12.6465C143.451 12.4043 143.496 12.1758 143.586 11.9609C143.68 11.7461 143.807 11.5586 143.967 11.3984C144.127 11.2383 144.314 11.1133 144.529 11.0234C144.744 10.9297 144.973 10.8828 145.215 10.8828H145.695C145.938 10.8828 146.166 10.9297 146.381 11.0234C146.596 11.1133 146.783 11.2383 146.943 11.3984C147.104 11.5586 147.229 11.7461 147.318 11.9609C147.412 12.1758 147.459 12.4043 147.459 12.6465V14.0586H144.172V15.3945C144.172 15.5391 144.199 15.6758 144.254 15.8047C144.309 15.9297 144.383 16.0391 144.477 16.1328C144.57 16.2266 144.68 16.3008 144.805 16.3555C144.934 16.4102 145.07 16.4375 145.215 16.4375H145.695C145.84 16.4375 145.975 16.4102 146.1 16.3555C146.229 16.3008 146.34 16.2266 146.434 16.1328C146.527 16.0391 146.602 15.9297 146.656 15.8047C146.711 15.6758 146.738 15.5391 146.738 15.3945V14.9961L147.459 15.1133V15.3535ZM146.738 12.6055C146.738 12.4609 146.711 12.3262 146.656 12.2012C146.602 12.0723 146.527 11.9609 146.434 11.8672C146.34 11.7734 146.229 11.6992 146.1 11.6445C145.975 11.5898 145.84 11.5625 145.695 11.5625H145.215C145.07 11.5625 144.934 11.5898 144.805 11.6445C144.68 11.6992 144.57 11.7734 144.477 11.8672C144.383 11.9609 144.309 12.0723 144.254 12.2012C144.199 12.3262 144.172 12.4609 144.172 12.6055V13.4961H146.738V12.6055ZM152.908 15.3535C152.908 15.5957 152.861 15.8242 152.768 16.0391C152.678 16.2539 152.553 16.4414 152.393 16.6016C152.232 16.7617 152.045 16.8887 151.83 16.9824C151.615 17.0723 151.387 17.1172 151.145 17.1172H150.664C150.422 17.1172 150.193 17.0723 149.979 16.9824C149.764 16.8887 149.576 16.7617 149.416 16.6016C149.256 16.4414 149.129 16.2539 149.035 16.0391C148.945 15.8242 148.9 15.5957 148.9 15.3535V12.6465C148.9 12.4043 148.945 12.1758 149.035 11.9609C149.129 11.7461 149.256 11.5586 149.416 11.3984C149.576 11.2383 149.764 11.1133 149.979 11.0234C150.193 10.9297 150.422 10.8828 150.664 10.8828H151.145C151.387 10.8828 151.615 10.9297 151.83 11.0234C152.045 11.1133 152.232 11.2383 152.393 11.3984C152.553 11.5586 152.678 11.7461 152.768 11.9609C152.861 12.1758 152.908 12.4043 152.908 12.6465V12.8867L152.188 13.0039V12.6055C152.188 12.4609 152.16 12.3262 152.105 12.2012C152.051 12.0723 151.977 11.9609 151.883 11.8672C151.789 11.7734 151.678 11.6992 151.549 11.6445C151.424 11.5898 151.289 11.5625 151.145 11.5625H150.664C150.52 11.5625 150.383 11.5898 150.254 11.6445C150.129 11.6992 150.02 11.7734 149.926 11.8672C149.832 11.9609 149.758 12.0723 149.703 12.2012C149.648 12.3262 149.621 12.4609 149.621 12.6055V15.3945C149.621 15.5391 149.648 15.6758 149.703 15.8047C149.758 15.9297 149.832 16.0391 149.926 16.1328C150.02 16.2266 150.129 16.3008 150.254 16.3555C150.383 16.4102 150.52 16.4375 150.664 16.4375H151.145C151.289 16.4375 151.424 16.4102 151.549 16.3555C151.678 16.3008 151.789 16.2266 151.883 16.1328C151.977 16.0391 152.051 15.9297 152.105 15.8047C152.16 15.6758 152.188 15.5391 152.188 15.3945V14.9961L152.908 15.1133V15.3535ZM156.535 17C156.316 17 156.109 16.959 155.914 16.877C155.723 16.7949 155.555 16.6816 155.41 16.5371C155.27 16.3926 155.156 16.2246 155.07 16.0332C154.988 15.8418 154.947 15.6367 154.947 15.418V11.6855H153.869V11H154.947V9.55859L155.668 9.44141V11H157.191V11.6855H155.668V15.4531C155.668 15.5742 155.689 15.6875 155.732 15.793C155.779 15.8945 155.842 15.9844 155.92 16.0625C155.998 16.1406 156.09 16.2031 156.195 16.25C156.301 16.293 156.414 16.3145 156.535 16.3145H157.191V17H156.535ZM162.289 17L161.891 16.3906C161.727 16.6133 161.521 16.791 161.275 16.9238C161.029 17.0527 160.76 17.1172 160.467 17.1172H160.285C160.043 17.1172 159.814 17.0723 159.6 16.9824C159.385 16.8887 159.197 16.7617 159.037 16.6016C158.877 16.4414 158.75 16.2539 158.656 16.0391C158.566 15.8242 158.521 15.5957 158.521 15.3535V11H159.242V15.3945C159.242 15.5391 159.27 15.6758 159.324 15.8047C159.379 15.9297 159.453 16.0391 159.547 16.1328C159.641 16.2266 159.75 16.3008 159.875 16.3555C160.004 16.4102 160.141 16.4375 160.285 16.4375H160.766C160.91 16.4375 161.045 16.4102 161.17 16.3555C161.299 16.3008 161.41 16.2266 161.504 16.1328C161.598 16.0391 161.672 15.9297 161.727 15.8047C161.781 15.6758 161.809 15.5391 161.809 15.3945V11H162.529V17H162.289ZM165.734 11.6855C165.59 11.6855 165.453 11.7129 165.324 11.7676C165.199 11.8223 165.09 11.8965 164.996 11.9902C164.902 12.084 164.828 12.1953 164.773 12.3242C164.719 12.4492 164.691 12.584 164.691 12.7285V17H163.971V11H164.211L164.604 11.6094C164.768 11.3867 164.973 11.2109 165.219 11.082C165.469 10.9492 165.74 10.8828 166.033 10.8828H166.455V11.6855H165.734ZM171.424 15.3535C171.424 15.5957 171.377 15.8242 171.283 16.0391C171.193 16.2539 171.068 16.4414 170.908 16.6016C170.748 16.7617 170.561 16.8887 170.346 16.9824C170.131 17.0723 169.902 17.1172 169.66 17.1172H169.18C168.938 17.1172 168.709 17.0723 168.494 16.9824C168.279 16.8887 168.092 16.7617 167.932 16.6016C167.771 16.4414 167.645 16.2539 167.551 16.0391C167.461 15.8242 167.416 15.5957 167.416 15.3535V12.6465C167.416 12.4043 167.461 12.1758 167.551 11.9609C167.645 11.7461 167.771 11.5586 167.932 11.3984C168.092 11.2383 168.279 11.1133 168.494 11.0234C168.709 10.9297 168.938 10.8828 169.18 10.8828H169.66C169.902 10.8828 170.131 10.9297 170.346 11.0234C170.561 11.1133 170.748 11.2383 170.908 11.3984C171.068 11.5586 171.193 11.7461 171.283 11.9609C171.377 12.1758 171.424 12.4043 171.424 12.6465V14.0586H168.137V15.3945C168.137 15.5391 168.164 15.6758 168.219 15.8047C168.273 15.9297 168.348 16.0391 168.441 16.1328C168.535 16.2266 168.645 16.3008 168.77 16.3555C168.898 16.4102 169.035 16.4375 169.18 16.4375H169.66C169.805 16.4375 169.939 16.4102 170.064 16.3555C170.193 16.3008 170.305 16.2266 170.398 16.1328C170.492 16.0391 170.566 15.9297 170.621 15.8047C170.676 15.6758 170.703 15.5391 170.703 15.3945V14.9961L171.424 15.1133V15.3535ZM170.703 12.6055C170.703 12.4609 170.676 12.3262 170.621 12.2012C170.566 12.0723 170.492 11.9609 170.398 11.8672C170.305 11.7734 170.193 11.6992 170.064 11.6445C169.939 11.5898 169.805 11.5625 169.66 11.5625H169.18C169.035 11.5625 168.898 11.5898 168.77 11.6445C168.645 11.6992 168.535 11.7734 168.441 11.8672C168.348 11.9609 168.273 12.0723 168.219 12.2012C168.164 12.3262 168.137 12.4609 168.137 12.6055V13.4961H170.703V12.6055ZM121.566 30.0547C121.566 30.3398 121.508 30.6074 121.391 30.8574C121.277 31.1074 121.123 31.3262 120.928 31.5137C120.736 31.7012 120.512 31.8496 120.254 31.959C120 32.0645 119.73 32.1172 119.445 32.1172H118.842C118.557 32.1172 118.285 32.0645 118.027 31.959C117.773 31.8496 117.549 31.7012 117.354 31.5137C117.162 31.3262 117.008 31.1074 116.891 30.8574C116.777 30.6074 116.721 30.3398 116.721 30.0547V29.7207L117.477 29.5977V30.0547C117.477 30.2422 117.514 30.418 117.588 30.582C117.666 30.7422 117.77 30.8848 117.898 31.0098C118.027 31.1309 118.176 31.2266 118.344 31.2969C118.516 31.3672 118.695 31.4023 118.883 31.4023H119.41C119.598 31.4023 119.775 31.3672 119.943 31.2969C120.111 31.2266 120.26 31.1309 120.389 31.0098C120.518 30.8848 120.619 30.7422 120.693 30.582C120.771 30.418 120.811 30.2422 120.811 30.0547V29.8027C120.811 29.5137 120.754 29.2734 120.641 29.082C120.527 28.8906 120.377 28.7285 120.189 28.5957C120.002 28.459 119.789 28.3438 119.551 28.25C119.316 28.1562 119.074 28.0625 118.824 27.9688C118.574 27.875 118.33 27.7715 118.092 27.6582C117.857 27.5449 117.646 27.4043 117.459 27.2363C117.271 27.0645 117.121 26.8555 117.008 26.6094C116.895 26.3633 116.838 26.0605 116.838 25.7012V25.543C116.838 25.2578 116.891 24.9902 116.996 24.7402C117.105 24.4902 117.254 24.2715 117.441 24.084C117.629 23.8965 117.848 23.75 118.098 23.6445C118.352 23.5352 118.621 23.4805 118.906 23.4805H119.445C119.73 23.4805 119.998 23.5352 120.248 23.6445C120.498 23.75 120.717 23.8965 120.904 24.084C121.092 24.2715 121.238 24.4902 121.344 24.7402C121.453 24.9902 121.508 25.2578 121.508 25.543V25.7598L120.752 25.8828V25.543C120.752 25.3555 120.717 25.1816 120.646 25.0215C120.576 24.8574 120.48 24.7148 120.359 24.5938C120.238 24.4727 120.096 24.377 119.932 24.3066C119.771 24.2363 119.598 24.2012 119.41 24.2012H118.941C118.754 24.2012 118.578 24.2363 118.414 24.3066C118.254 24.377 118.111 24.4727 117.986 24.5938C117.865 24.7148 117.77 24.8574 117.699 25.0215C117.629 25.1816 117.594 25.3555 117.594 25.543V25.7012C117.594 25.9707 117.65 26.1973 117.764 26.3809C117.877 26.5645 118.027 26.7227 118.215 26.8555C118.402 26.9844 118.613 27.0977 118.848 27.1953C119.086 27.2891 119.33 27.3867 119.58 27.4883C119.83 27.5859 120.072 27.6953 120.307 27.8164C120.545 27.9336 120.758 28.0801 120.945 28.2559C121.133 28.4277 121.283 28.6387 121.396 28.8887C121.51 29.1387 121.566 29.4434 121.566 29.8027V30.0547ZM126.963 30.3535C126.963 30.5957 126.916 30.8242 126.822 31.0391C126.732 31.2539 126.607 31.4414 126.447 31.6016C126.287 31.7617 126.1 31.8887 125.885 31.9824C125.67 32.0723 125.441 32.1172 125.199 32.1172H124.719C124.477 32.1172 124.248 32.0723 124.033 31.9824C123.818 31.8887 123.631 31.7617 123.471 31.6016C123.311 31.4414 123.184 31.2539 123.09 31.0391C123 30.8242 122.955 30.5957 122.955 30.3535V27.6465C122.955 27.4043 123 27.1758 123.09 26.9609C123.184 26.7461 123.311 26.5586 123.471 26.3984C123.631 26.2383 123.818 26.1133 124.033 26.0234C124.248 25.9297 124.477 25.8828 124.719 25.8828H125.199C125.441 25.8828 125.67 25.9297 125.885 26.0234C126.1 26.1133 126.287 26.2383 126.447 26.3984C126.607 26.5586 126.732 26.7461 126.822 26.9609C126.916 27.1758 126.963 27.4043 126.963 27.6465V29.0586H123.676V30.3945C123.676 30.5391 123.703 30.6758 123.758 30.8047C123.812 30.9297 123.887 31.0391 123.98 31.1328C124.074 31.2266 124.184 31.3008 124.309 31.3555C124.438 31.4102 124.574 31.4375 124.719 31.4375H125.199C125.344 31.4375 125.479 31.4102 125.604 31.3555C125.732 31.3008 125.844 31.2266 125.938 31.1328C126.031 31.0391 126.105 30.9297 126.16 30.8047C126.215 30.6758 126.242 30.5391 126.242 30.3945V29.9961L126.963 30.1133V30.3535ZM126.242 27.6055C126.242 27.4609 126.215 27.3262 126.16 27.2012C126.105 27.0723 126.031 26.9609 125.938 26.8672C125.844 26.7734 125.732 26.6992 125.604 26.6445C125.479 26.5898 125.344 26.5625 125.199 26.5625H124.719C124.574 26.5625 124.438 26.5898 124.309 26.6445C124.184 26.6992 124.074 26.7734 123.98 26.8672C123.887 26.9609 123.812 27.0723 123.758 27.2012C123.703 27.3262 123.676 27.4609 123.676 27.6055V28.4961H126.242V27.6055ZM130.168 26.6855C130.023 26.6855 129.887 26.7129 129.758 26.7676C129.633 26.8223 129.523 26.8965 129.43 26.9902C129.336 27.084 129.262 27.1953 129.207 27.3242C129.152 27.4492 129.125 27.584 129.125 27.7285V32H128.404V26H128.645L129.037 26.6094C129.201 26.3867 129.406 26.2109 129.652 26.082C129.902 25.9492 130.174 25.8828 130.467 25.8828H130.889V26.6855H130.168ZM133.73 32H133.373L131.246 26H131.967L133.531 30.5469L133.555 30.8574L133.578 30.5469L135.137 26H135.857L133.73 32ZM136.883 24.5586V23.5977H137.721V24.5586H136.883ZM136.941 32V26H137.662V32H136.941ZM143.357 30.3535C143.357 30.5957 143.311 30.8242 143.217 31.0391C143.127 31.2539 143.002 31.4414 142.842 31.6016C142.682 31.7617 142.494 31.8887 142.279 31.9824C142.064 32.0723 141.836 32.1172 141.594 32.1172H141.113C140.871 32.1172 140.643 32.0723 140.428 31.9824C140.213 31.8887 140.025 31.7617 139.865 31.6016C139.705 31.4414 139.578 31.2539 139.484 31.0391C139.395 30.8242 139.35 30.5957 139.35 30.3535V27.6465C139.35 27.4043 139.395 27.1758 139.484 26.9609C139.578 26.7461 139.705 26.5586 139.865 26.3984C140.025 26.2383 140.213 26.1133 140.428 26.0234C140.643 25.9297 140.871 25.8828 141.113 25.8828H141.594C141.836 25.8828 142.064 25.9297 142.279 26.0234C142.494 26.1133 142.682 26.2383 142.842 26.3984C143.002 26.5586 143.127 26.7461 143.217 26.9609C143.311 27.1758 143.357 27.4043 143.357 27.6465V27.8867L142.637 28.0039V27.6055C142.637 27.4609 142.609 27.3262 142.555 27.2012C142.5 27.0723 142.426 26.9609 142.332 26.8672C142.238 26.7734 142.127 26.6992 141.998 26.6445C141.873 26.5898 141.738 26.5625 141.594 26.5625H141.113C140.969 26.5625 140.832 26.5898 140.703 26.6445C140.578 26.6992 140.469 26.7734 140.375 26.8672C140.281 26.9609 140.207 27.0723 140.152 27.2012C140.098 27.3262 140.07 27.4609 140.07 27.6055V30.3945C140.07 30.5391 140.098 30.6758 140.152 30.8047C140.207 30.9297 140.281 31.0391 140.375 31.1328C140.469 31.2266 140.578 31.3008 140.703 31.3555C140.832 31.4102 140.969 31.4375 141.113 31.4375H141.594C141.738 31.4375 141.873 31.4102 141.998 31.3555C142.127 31.3008 142.238 31.2266 142.332 31.1328C142.426 31.0391 142.5 30.9297 142.555 30.8047C142.609 30.6758 142.637 30.5391 142.637 30.3945V29.9961L143.357 30.1133V30.3535ZM148.807 30.3535C148.807 30.5957 148.76 30.8242 148.666 31.0391C148.576 31.2539 148.451 31.4414 148.291 31.6016C148.131 31.7617 147.943 31.8887 147.729 31.9824C147.514 32.0723 147.285 32.1172 147.043 32.1172H146.562C146.32 32.1172 146.092 32.0723 145.877 31.9824C145.662 31.8887 145.475 31.7617 145.314 31.6016C145.154 31.4414 145.027 31.2539 144.934 31.0391C144.844 30.8242 144.799 30.5957 144.799 30.3535V27.6465C144.799 27.4043 144.844 27.1758 144.934 26.9609C145.027 26.7461 145.154 26.5586 145.314 26.3984C145.475 26.2383 145.662 26.1133 145.877 26.0234C146.092 25.9297 146.32 25.8828 146.562 25.8828H147.043C147.285 25.8828 147.514 25.9297 147.729 26.0234C147.943 26.1133 148.131 26.2383 148.291 26.3984C148.451 26.5586 148.576 26.7461 148.666 26.9609C148.76 27.1758 148.807 27.4043 148.807 27.6465V29.0586H145.52V30.3945C145.52 30.5391 145.547 30.6758 145.602 30.8047C145.656 30.9297 145.73 31.0391 145.824 31.1328C145.918 31.2266 146.027 31.3008 146.152 31.3555C146.281 31.4102 146.418 31.4375 146.562 31.4375H147.043C147.188 31.4375 147.322 31.4102 147.447 31.3555C147.576 31.3008 147.688 31.2266 147.781 31.1328C147.875 31.0391 147.949 30.9297 148.004 30.8047C148.059 30.6758 148.086 30.5391 148.086 30.3945V29.9961L148.807 30.1133V30.3535ZM148.086 27.6055C148.086 27.4609 148.059 27.3262 148.004 27.2012C147.949 27.0723 147.875 26.9609 147.781 26.8672C147.688 26.7734 147.576 26.6992 147.447 26.6445C147.322 26.5898 147.188 26.5625 147.043 26.5625H146.562C146.418 26.5625 146.281 26.5898 146.152 26.6445C146.027 26.6992 145.918 26.7734 145.824 26.8672C145.73 26.9609 145.656 27.0723 145.602 27.2012C145.547 27.3262 145.52 27.4609 145.52 27.6055V28.4961H148.086V27.6055Z" fill="black"/>
<rect x="107" width="1" height="40" fill="black"/>
</svg>
